<svg aria-hidden="true" style="position: absolute; width: 0; height: 0; overflow: hidden;" version="1.1" xmlns="http://www.w3.org/2000/svg" xmlns:xlink="http://www.w3.org/1999/xlink">
<defs>
<symbol id="icon-Icon-awesome-bath-2" viewBox="0 0 32 32">
<path fill="#fff" style="fill: var(--color1, #fff)" d="M31.372 15.855h-26.228v-9.257c0.011-1.127 0.928-2.037 2.057-2.037 0.72 0 1.353 0.37 1.72 0.929l0.005 0.008c-0.445 0.673-0.71 1.499-0.71 2.387 0 1.14 0.437 2.177 1.153 2.955l-0.003-0.003c-0.12 0.135-0.194 0.315-0.194 0.511 0 0.213 0.086 0.405 0.226 0.545l0.727 0.727c0.14 0.14 0.332 0.226 0.545 0.226s0.406-0.086 0.545-0.226v0l6.109-6.109c0.14-0.14 0.226-0.332 0.226-0.545s-0.086-0.406-0.226-0.545v0l-0.727-0.727c-0.14-0.139-0.332-0.226-0.545-0.226-0.196 0-0.376 0.073-0.512 0.194l0.001-0.001c-0.774-0.713-1.812-1.15-2.952-1.15-0.418 0-0.822 0.059-1.204 0.168l0.031-0.008c-0.941-1.339-2.479-2.203-4.218-2.203-2.835 0-5.134 2.295-5.14 5.129v9.257h-0.515c-0.852 0-1.542 0.69-1.542 1.542v1.030c0 0.852 0.69 1.542 1.542 1.542v0h0.515v2.057c0 0 0 0.001 0 0.001 0 1.823 0.792 3.46 2.051 4.587l0.006 0.005v2.086c0 0.852 0.69 1.542 1.542 1.542h1.036c0.852 0 1.542-0.69 1.542-1.542v0-0.515h16.454v0.515c0 0.852 0.69 1.542 1.542 1.542h1.030c0.852 0 1.542-0.69 1.542-1.542v0-2.086c1.265-1.132 2.057-2.77 2.057-4.592 0-0.002 0-0.005 0-0.007v0-2.051h0.515c0.852 0 1.542-0.69 1.542-1.542v0-1.030c0-0.852-0.69-1.542-1.542-1.542v0z"></path>
</symbol>
<symbol id="icon-Icon-awesome-bed" viewBox="0 0 32 32">
<path fill="#fff" style="fill: var(--color1, #fff)" d="M8.54 15.906c0.001 0 0.001 0 0.002 0 2.145 0 3.883-1.739 3.883-3.883s-1.739-3.883-3.883-3.883c-2.145 0-3.883 1.739-3.883 3.883v0c0.002 2.143 1.738 3.88 3.881 3.883h0zM25.623 9.694h-10.869c-0.428 0-0.776 0.347-0.776 0.776v0 6.987h-10.872v-10.093c0-0.428-0.347-0.776-0.776-0.776v0h-1.553c-0.001 0-0.001 0-0.002 0-0.428 0-0.776 0.347-0.776 0.776 0 0 0 0 0 0v0 17.082c0 0.001 0 0.001 0 0.002 0 0.428 0.347 0.776 0.776 0.776 0.001 0 0.001 0 0.002 0h1.553c0.001 0 0.001 0 0.002 0 0.428 0 0.776-0.347 0.776-0.776 0-0.001 0-0.001 0-0.002v0-2.328h24.847v2.328c0 0.001 0 0.001 0 0.002 0 0.428 0.347 0.776 0.776 0.776 0.001 0 0.001 0 0.002 0h1.553c0.001 0 0.001 0 0.002 0 0.428 0 0.776-0.347 0.776-0.776 0-0.001 0-0.001 0-0.002v0-9.316c0-0.001 0-0.001 0-0.002 0-3.001-2.433-5.434-5.434-5.434-0.001 0-0.003 0-0.004 0h0z"></path>
</symbol>
<symbol id="icon-Icon-awesome-expand-arrows-alt" viewBox="0 0 32 32">
<path fill="#fff" style="fill: var(--color1, #fff)" d="M32 22.285v8c0 0.001 0 0.002 0 0.003 0 0.945-0.766 1.711-1.711 1.711-0.001 0-0.002 0-0.004 0h-8c-0.946-0.004-1.71-0.772-1.71-1.718 0-0.472 0.19-0.899 0.498-1.209l2.587-2.587-7.66-7.656-7.66 7.663 2.587 2.58c0.308 0.31 0.498 0.738 0.498 1.209 0 0.946-0.765 1.714-1.71 1.718h-8c-0.001 0-0.002 0-0.003 0-0.945 0-1.711-0.766-1.711-1.711 0-0.001 0-0.002 0-0.004v0-8c0.004-0.946 0.772-1.71 1.718-1.71 0.472 0 0.899 0.19 1.209 0.498l-0-0 2.584 2.587 7.667-7.66-7.663-7.663-2.584 2.594c-0.311 0.31-0.739 0.501-1.213 0.501-0.948 0-1.717-0.769-1.718-1.717v-8c0-0.001 0-0.002 0-0.003 0-0.945 0.766-1.711 1.711-1.711 0.001 0 0.002 0 0.004 0h8c0.946 0.004 1.71 0.772 1.71 1.718 0 0.472-0.19 0.899-0.498 1.209l-2.587 2.587 7.66 7.656 7.66-7.663-2.587-2.58c-0.308-0.31-0.498-0.738-0.498-1.209 0-0.946 0.765-1.714 1.71-1.718h8c0.001 0 0.002 0 0.003 0 0.945 0 1.711 0.766 1.711 1.711 0 0.001 0 0.002 0 0.004v-0 8c-0.004 0.946-0.772 1.71-1.718 1.71-0.472 0-0.899-0.19-1.209-0.498l0 0-2.584-2.587-7.667 7.66 7.663 7.663 2.584-2.587c0.311-0.312 0.741-0.506 1.216-0.506 0.947 0 1.715 0.768 1.715 1.715 0 0 0 0 0 0.001v-0z"></path>
</symbol>
<symbol id="icon-Icon-awesome-facebook-f" viewBox="0 0 32 32">
<path fill="#fff" style="fill: var(--color1, #fff)" d="M23.91 18.408l0.909-5.922h-5.685v-3.844c-0.008-0.079-0.012-0.172-0.012-0.265 0-1.635 1.326-2.961 2.961-2.961 0.138 0 0.273 0.009 0.406 0.028l-0.015-0.002h2.583v-5.041c-1.362-0.232-2.946-0.377-4.56-0.401l-0.024-0c-4.678 0-7.74 2.837-7.74 7.972v4.518h-5.203v5.918h5.203v14.317h6.4v-14.317z"></path>
</symbol>
<symbol id="icon-Icon-awesome-instagram" viewBox="0 0 32 32">
<path fill="#fff" style="fill: var(--color1, #fff)" d="M16.007 7.792c-4.528 0-8.198 3.67-8.198 8.198s3.67 8.198 8.198 8.198c4.528 0 8.198-3.67 8.198-8.198v0c0-4.528-3.67-8.198-8.198-8.198v0zM16.007 21.331c-2.946 0-5.334-2.388-5.334-5.334s2.388-5.334 5.334-5.334c2.946 0 5.334 2.388 5.334 5.334v0c-0.006 2.943-2.39 5.328-5.333 5.334h-0.001zM26.461 7.457c0 1.056-0.856 1.913-1.913 1.913s-1.913-0.856-1.913-1.913c0-1.056 0.856-1.913 1.913-1.913v0c0.001 0 0.002 0 0.003 0 1.055 0 1.909 0.855 1.909 1.909 0 0.002 0 0.005 0 0.007v-0zM31.896 9.402c0.001-0.060 0.002-0.131 0.002-0.202 0-2.521-0.985-4.811-2.59-6.508l0.004 0.004c-1.702-1.606-4.003-2.592-6.535-2.592-0.061 0-0.121 0.001-0.181 0.002l0.009-0c-2.642-0.15-10.56-0.15-13.202 0-0.055-0.001-0.119-0.002-0.183-0.002-2.526 0-4.823 0.984-6.527 2.59l0.005-0.004c-1.602 1.697-2.586 3.991-2.586 6.516 0 0.067 0.001 0.133 0.002 0.2l-0-0.010c-0.15 2.642-0.15 10.56 0 13.202-0.001 0.060-0.002 0.131-0.002 0.202 0 2.521 0.985 4.811 2.59 6.508l-0.004-0.004c1.703 1.602 4.003 2.586 6.533 2.586 0.061 0 0.121-0.001 0.182-0.002l-0.009 0c2.642 0.15 10.56 0.15 13.202 0 0.060 0.001 0.131 0.002 0.202 0.002 2.521 0 4.811-0.985 6.508-2.59l-0.004 0.004c1.602-1.701 2.586-3.999 2.586-6.528 0-0.063-0.001-0.125-0.002-0.187l0 0.009c0.15-2.642 0.15-10.553 0-13.196zM28.48 25.433c-0.561 1.395-1.645 2.48-3.004 3.029l-0.036 0.013c-2.106 0.835-7.105 0.642-9.433 0.642s-7.334 0.186-9.433-0.642c-1.396-0.561-2.481-1.646-3.029-3.006l-0.013-0.036c-0.835-2.106-0.642-7.105-0.642-9.433s-0.186-7.334 0.642-9.433c0.56-1.397 1.646-2.484 3.006-3.032l0.036-0.013c2.108-0.832 7.098-0.639 9.433-0.639s7.334-0.186 9.433 0.642c1.396 0.561 2.481 1.646 3.029 3.006l0.013 0.036c0.835 2.106 0.642 7.105 0.642 9.433s0.193 7.334-0.642 9.433z"></path>
</symbol>
<symbol id="icon-Icon-awesome-linkedin-in" viewBox="0 0 32 32">
<path fill="#fff" style="fill: var(--color1, #fff)" d="M7.164 32h-6.636v-21.363h6.636zM3.842 7.722c-0.005 0-0.010 0-0.015 0-2.132 0-3.861-1.729-3.861-3.861s1.729-3.861 3.861-3.861c2.126 0 3.851 1.719 3.861 3.843v0.001c0 0.001 0 0.002 0 0.004 0 2.13-1.718 3.858-3.844 3.875h-0.002zM31.993 32h-6.62v-10.4c0-2.479-0.050-5.657-3.449-5.657-3.449 0-3.977 2.693-3.977 5.479v10.577h-6.627v-21.363h6.362v2.913h0.087c1.232-2.081 3.465-3.454 6.019-3.454 0.091 0 0.181 0.002 0.271 0.005l-0.013-0c6.714 0 7.948 4.422 7.948 10.164v11.736z"></path>
</symbol>
<symbol id="icon-Icon-awesome-parking" viewBox="0 0 32 32">
<path fill="#614818" style="fill: var(--color2, #614818)" d="M28.572 0h-25.143c-1.894 0-3.429 1.535-3.429 3.429v25.145c0 1.894 1.535 3.429 3.429 3.429h25.145c1.894-0 3.429-1.535 3.429-3.429v-25.145c-0-1.894-1.536-3.429-3.429-3.429-0 0-0.001 0-0.001 0h0zM17.142 20.571h-3.427v3.429c-0.002 0.631-0.513 1.141-1.143 1.143h-2.285c-0.631-0.002-1.141-0.513-1.143-1.143v-16c0.002-0.631 0.513-1.141 1.143-1.143h6.856c3.787 0 6.857 3.070 6.857 6.857s-3.070 6.857-6.857 6.857v0zM17.142 11.429h-3.427v4.571h3.427c1.262 0 2.286-1.023 2.286-2.286s-1.023-2.286-2.286-2.286v0z"></path>
</symbol>
<symbol id="icon-Icon-awesome-phone-alt" viewBox="0 0 32 32">
<path fill="#fff" style="fill: var(--color1, #fff)" d="M31.088 22.614l-7.001-3c-0.173-0.076-0.375-0.12-0.587-0.12-0.468 0-0.885 0.214-1.161 0.549l-0.002 0.003-3.1 3.787c-4.886-2.34-8.737-6.191-11.017-10.938l-0.060-0.139 3.79-3.098c0.339-0.276 0.553-0.694 0.553-1.161 0-0.213-0.044-0.415-0.125-0.599l0.004 0.010-3-7.001c-0.239-0.537-0.769-0.905-1.384-0.905-0.119 0-0.234 0.014-0.345 0.040l0.010-0.002-6.5 1.499c-0.671 0.159-1.163 0.753-1.163 1.462v0c0 0.001 0 0.002 0 0.004 0 16.015 12.983 28.998 28.998 28.998 0.001 0 0.003 0 0.004 0h-0c0.709-0 1.303-0.492 1.46-1.153l0.002-0.010 1.501-6.5c0.023-0.1 0.037-0.215 0.037-0.333 0-0.619-0.371-1.152-0.902-1.388l-0.010-0.004z"></path>
</symbol>
<symbol id="icon-Icon-awesome-piggy-bank" viewBox="0 0 32 32">
<path fill="#614818" style="fill: var(--color2, #614818)" d="M30.912 14.276h-1.629c-0.509-1.134-1.206-2.097-2.059-2.893l-0.005-0.005 1.044-4.166h-1.767c-1.616 0.005-3.060 0.736-4.023 1.885l-0.007 0.008c-0.374-0.069-0.811-0.114-1.257-0.127l-0.012-0h-7.065c-4.252 0.002-7.801 3.006-8.646 7.007l-0.010 0.058h-2.385c-0.732-0.001-1.324-0.595-1.324-1.326 0-0.093 0.010-0.184 0.028-0.272l-0.002 0.009c0.142-0.611 0.682-1.060 1.326-1.060 0.009 0 0.018 0 0.028 0l-0.001-0h0.054c0.182-0.002 0.329-0.149 0.331-0.331v-1.104c-0.002-0.182-0.149-0.329-0.331-0.331h-0c-0.014-0-0.030-0-0.047-0-1.577 0-2.885 1.155-3.123 2.665l-0.002 0.018c-0.017 0.122-0.027 0.263-0.027 0.406 0 1.707 1.383 3.092 3.091 3.093h2.208c0.007 2.866 1.384 5.409 3.51 7.010l0.022 0.016v4.455c0.002 0.487 0.396 0.881 0.883 0.883h3.534c0.487-0.002 0.881-0.396 0.883-0.883v-2.649h7.065v2.65c0.002 0.487 0.396 0.881 0.883 0.883h3.535c0.487-0.002 0.881-0.396 0.883-0.883v-4.456c0.659-0.5 1.228-1.069 1.713-1.705l0.016-0.022h2.688c0.487-0.002 0.881-0.396 0.883-0.883v-7.066c-0.001-0.488-0.397-0.883-0.885-0.884h-0zM23.846 17.81c-0.488 0-0.883-0.395-0.883-0.883s0.395-0.883 0.883-0.883c0.488 0 0.883 0.395 0.883 0.883v0c-0.002 0.486-0.396 0.88-0.882 0.882h-0zM14.131 7.212h7.066c0.298 0 0.591 0.022 0.878 0.044 0-0.017 0.006-0.028 0.006-0.044 0.001-0.042 0.002-0.092 0.002-0.142 0-2.928-2.374-5.301-5.302-5.301s-5.302 2.374-5.302 5.301c0 0.050 0.001 0.1 0.002 0.15l-0-0.007c0 0.116 0.028 0.226 0.033 0.342 0.784-0.214 1.685-0.339 2.614-0.342h0.002z"></path>
</symbol>
<symbol id="icon-Icon-awesome-question" viewBox="0 0 32 32">
<path fill="#fff" style="fill: var(--color1, #fff)" d="M16.029 0c-0.143-0.006-0.311-0.010-0.479-0.010-4.278 0-8.034 2.236-10.162 5.604l-0.029 0.049c-0.167 0.237-0.267 0.532-0.267 0.851 0 0.482 0.229 0.911 0.585 1.183l0.004 0.003 2.673 2.029c0.247 0.19 0.561 0.304 0.901 0.304 0.469 0 0.887-0.217 1.159-0.555l0.002-0.003c1.552-1.948 2.704-3.068 5.13-3.068 1.907 0 4.266 1.228 4.266 3.078 0 1.398-1.155 2.116-3.037 3.172-2.196 1.232-5.103 2.764-5.103 6.598v0.607c0 0.822 0.666 1.488 1.488 1.488v0h4.493c0.822 0 1.488-0.666 1.488-1.488 0-0 0-0.001 0-0.002v0-0.358c0-2.657 7.767-2.764 7.767-9.959 0-5.415-5.617-9.523-10.88-9.523zM15.408 23.155c-2.372 0-4.295 1.923-4.295 4.295s1.923 4.295 4.295 4.295c2.372 0 4.295-1.923 4.295-4.295v0c-0.002-2.371-1.924-4.293-4.295-4.295h-0z"></path>
</symbol>
<symbol id="icon-Icon-awesome-skype" viewBox="0 0 32 32">
<path fill="#fff" style="fill: var(--color1, #fff)" d="M30.343 19.133c0.207-0.938 0.329-2.018 0.335-3.125l0-0.004c0-0.002 0-0.004 0-0.006 0-8.097-6.564-14.661-14.661-14.661-0.002 0-0.004 0-0.006 0h0c-1.11 0.003-2.19 0.125-3.23 0.354l0.1-0.019c-1.336-1.041-3.039-1.669-4.888-1.669-4.414 0-7.992 3.578-7.992 7.992 0 1.846 0.626 3.545 1.677 4.898l-0.014-0.018c-0.207 0.938-0.329 2.018-0.335 3.125l-0 0.004c0 0.002 0 0.004 0 0.006 0 8.097 6.564 14.661 14.661 14.661 0.002 0 0.004 0 0.006 0h-0c1.11-0.003 2.19-0.125 3.23-0.354l-0.1 0.019c1.335 1.038 3.036 1.665 4.882 1.665 4.414 0 7.992-3.578 7.992-7.992 0-0.004 0-0.007 0-0.011v0.001c0-0.009 0-0.020 0-0.030 0-1.83-0.624-3.514-1.67-4.852l0.013 0.017zM16.439 25.67c-4.687 0-8.609-2.086-8.609-4.644-0.005-0.054-0.008-0.118-0.008-0.182 0-1.109 0.899-2.008 2.008-2.008 0.038 0 0.076 0.001 0.113 0.003l-0.005-0c2.229 0 2.439 3.208 6.295 3.208 1.836 0 3.022-0.813 3.022-1.879 0-1.336-1.143-1.543-3.001-2.001-4.467-1.099-8.416-1.571-8.416-6.229 0-4.23 4.186-5.792 7.794-5.792 3.936 0 7.916 1.565 7.916 3.963 0.002 0.036 0.003 0.078 0.003 0.12 0 1.189-0.964 2.152-2.152 2.152-0.005 0-0.011-0-0.016-0h0.001c-2.022 0-2.086-2.393-5.358-2.393-1.836 0-3.001 0.5-3.001 1.607 0 1.414 1.486 1.558 4.937 2.357 2.958 0.665 6.48 1.914 6.48 5.544 0 4.222-4.080 6.18-8.002 6.18z"></path>
</symbol>
<symbol id="icon-Icon-awesome-twitter" viewBox="0 0 32 32">
<path fill="#fff" style="fill: var(--color1, #fff)" d="M29.266 9.65c0.021 0.29 0.021 0.579 0.021 0.869 0 0.037 0 0.081 0 0.125 0 10.436-8.46 18.895-18.895 18.895-0.045 0-0.089-0-0.134-0l0.007 0c-0.017 0-0.036 0-0.056 0-3.792 0-7.324-1.117-10.283-3.041l0.073 0.045c0.453 0.053 0.978 0.083 1.51 0.083 0.036 0 0.073-0 0.109-0l-0.006 0c0.010 0 0.023 0 0.035 0 3.132 0 6.013-1.075 8.293-2.877l-0.028 0.021c-2.912-0.056-5.364-1.962-6.234-4.588l-0.014-0.047c0.378 0.060 0.814 0.094 1.259 0.094 0.001 0 0.001 0 0.002 0h-0c0.626-0.002 1.232-0.084 1.809-0.238l-0.049 0.011c-3.080-0.639-5.362-3.33-5.362-6.554 0-0.002 0-0.003 0-0.005v0-0.082c0.871 0.495 1.906 0.804 3.009 0.848l0.013 0c-1.807-1.218-2.98-3.257-2.98-5.57 0-1.242 0.338-2.406 0.928-3.403l-0.017 0.031c3.313 4.055 8.212 6.704 13.738 6.994l0.047 0.002c-0.102-0.459-0.163-0.987-0.166-1.529v-0.002c0.004-3.692 2.998-6.684 6.691-6.684 1.922 0 3.656 0.811 4.876 2.109l0.003 0.003c1.599-0.314 3.021-0.875 4.301-1.647l-0.059 0.033c-0.518 1.57-1.557 2.849-2.908 3.663l-0.030 0.017c1.427-0.166 2.727-0.531 3.934-1.069l-0.085 0.034c-0.933 1.346-2.043 2.49-3.313 3.428l-0.039 0.028z"></path>
</symbol>
<symbol id="icon-Icon-awesome-user-alt" viewBox="0 0 32 32">
<path fill="#fff" style="fill: var(--color1, #fff)" d="M16 18c0.001 0 0.001 0 0.002 0 4.971 0 9.001-4.030 9.001-9.001s-4.030-9.001-9.001-9.001c-4.971 0-9.001 4.030-9.001 9.001 0 0.001 0 0.001 0 0.002v-0c0.002 4.969 4.030 8.997 8.999 8.999h0zM24 20h-3.444c-1.337 0.631-2.903 1-4.556 1s-3.22-0.369-4.623-1.028l0.066 0.028h-3.444c-4.418 0-8 3.582-8 8v0 1.001c0.001 1.657 1.344 2.999 3.001 2.999h26c1.656-0.001 2.998-1.343 2.999-2.999v-1.001c0-4.418-3.582-8-8-8v0z"></path>
</symbol>
<symbol id="icon-Icon-ionic-ios-arrow-forward" viewBox="0 0 32 32">
<path fill="#fff" style="fill: var(--color1, #fff)" d="M12.425 15.994l12.109-12.1c0.415-0.413 0.672-0.984 0.672-1.615s-0.257-1.202-0.672-1.615l-0-0c-0.416-0.411-0.988-0.664-1.62-0.664s-1.203 0.254-1.62 0.665l-13.719 13.71c-0.412 0.413-0.666 0.983-0.666 1.612 0 0.595 0.228 1.137 0.601 1.543l-0.002-0.002 13.777 13.805c0.416 0.424 0.994 0.688 1.635 0.688 1.263 0 2.287-1.024 2.287-2.287 0-0.638-0.261-1.215-0.683-1.63l-0-0z"></path>
</symbol>
<symbol id="icon-Icon-ionic-ios-arrow-forward-1" viewBox="0 0 32 32">
<path fill="#fff" style="fill: var(--color1, #fff)" d="M19.69 15.994l-12.109-12.1c-0.415-0.413-0.672-0.984-0.672-1.615s0.257-1.202 0.672-1.615l0-0c0.416-0.411 0.988-0.664 1.62-0.664s1.203 0.254 1.62 0.665l13.719 13.71c0.412 0.413 0.667 0.983 0.667 1.613 0 0.596-0.228 1.138-0.602 1.544l0.002-0.002-13.777 13.803c-0.416 0.424-0.994 0.688-1.635 0.688-1.263 0-2.287-1.024-2.287-2.287 0-0.638 0.261-1.215 0.683-1.63l0-0z"></path>
</symbol>
<symbol id="icon-Icon-ionic-ios-call" viewBox="0 0 32 32">
<path fill="#fff" style="fill: var(--color1, #fff)" d="M31.079 25.061c-1.632-1.426-3.476-2.678-5.462-3.69l-0.152-0.070c-1.685-0.809-2.298-0.79-3.49 0.068-0.993 0.718-1.632 1.384-2.775 1.128-2.195-1.014-4.050-2.409-5.558-4.119l-0.016-0.018c-1.73-1.521-3.126-3.377-4.095-5.472l-0.042-0.102c-0.241-1.151 0.425-1.783 1.128-2.775 0.857-1.192 0.884-1.809 0.068-3.49-1.076-2.14-2.329-3.985-3.786-5.644l0.026 0.030c-1.226-1.226-1.504-0.959-2.174-0.718-0.766 0.324-1.42 0.678-2.035 1.085l0.046-0.029c-1.030 0.596-1.848 1.456-2.376 2.489l-0.016 0.034c-0.474 1.023-1.023 2.933 1.775 7.898 2.172 3.967 4.754 7.375 7.762 10.354l0.004 0.004c2.983 3.010 6.391 5.592 10.128 7.65l0.229 0.116c4.983 2.798 6.89 2.256 7.898 1.775 1.071-0.538 1.933-1.358 2.508-2.363l0.015-0.029c0.379-0.569 0.732-1.223 1.026-1.909l0.031-0.081c0.293-0.624 0.568-0.899-0.666-2.121z"></path>
</symbol>
<symbol id="icon-Icon-ionic-ios-search" viewBox="0 0 32 32">
<path fill="#fff" style="fill: var(--color1, #fff)" d="M29.692 31.624l-8.982-8.899c-2.142 1.71-4.89 2.744-7.879 2.744-7.004 0-12.682-5.678-12.682-12.682s5.678-12.682 12.682-12.682c7.004 0 12.682 5.678 12.682 12.682 0 3.050-1.077 5.848-2.87 8.036l0.018-0.022 8.923 8.84c0.263 0.25 0.426 0.602 0.426 0.993 0 0.365-0.143 0.697-0.376 0.942l0.001-0.001c-0.252 0.262-0.605 0.425-0.996 0.425-0.367 0-0.7-0.143-0.947-0.377l0.001 0.001zM22.766 12.757c-0.003-5.529-4.485-10.010-10.014-10.010-5.531 0-10.014 4.484-10.014 10.014s4.484 10.014 10.014 10.014c2.766 0 5.27-1.121 7.083-2.934l0-0c1.811-1.803 2.932-4.298 2.932-7.056 0-0.010 0-0.021-0-0.031v0.002z"></path>
</symbol>
<symbol id="icon-Icon-ionic-md-school" viewBox="0 0 32 32">
<path fill="#614818" style="fill: var(--color2, #614818)" d="M5.825 17.843v6.096l10.185 5.825 10.185-5.825v-6.096l-10.185 5.825zM16.010 2.319l-16.010 9.148 16.010 9.148 13.101-7.483v10.535h2.909v-12.2z"></path>
</symbol>
<symbol id="icon-Icon-map-park" viewBox="0 0 32 32">
<path fill="#614818" style="fill: var(--color2, #614818)" d="M10.885 15.715h9.465l-3.115-8.275h-3.231zM5.727 7.441v-2.546h20.371v2.546h-5.010l3.122 8.275h7.617v2.546h-6.453l3.647 8.911h-3.539l-3.647-8.911h-11.79l-3.63 8.911h-3.539l3.626-8.911h-6.504v-2.546h7.665l3.12-8.275h-5.056z"></path>
</symbol>
<symbol id="icon-Icon-map-swimming" viewBox="0 0 32 32">
<path fill="#614818" style="fill: var(--color2, #614818)" d="M31.827 27.307c-0.709-0-1.382-0.157-1.986-0.437l0.029 0.012c-0.593-0.278-1.287-0.44-2.019-0.44s-1.426 0.162-2.049 0.453l0.030-0.012c-0.575 0.268-1.248 0.424-1.957 0.424s-1.382-0.156-1.986-0.437l0.029 0.012c-0.593-0.278-1.288-0.44-2.021-0.44s-1.428 0.162-2.051 0.453l0.030-0.013c-0.576 0.268-1.25 0.425-1.96 0.425s-1.385-0.156-1.99-0.437l0.029 0.012c-0.592-0.278-1.286-0.44-2.017-0.44s-1.425 0.162-2.047 0.453l0.030-0.012c-0.576 0.268-1.249 0.425-1.96 0.425s-1.384-0.157-1.989-0.437l0.029 0.012c-0.594-0.276-1.288-0.437-2.020-0.44h-0.001c-0.731 0.004-1.422 0.166-2.044 0.453l0.031-0.013c-0.578 0.268-1.253 0.424-1.966 0.425h-0v-2.915c0.712-0.004 1.387-0.158 1.996-0.432l-0.031 0.013c0.591-0.282 1.285-0.447 2.017-0.447s1.426 0.165 2.046 0.459l-0.029-0.012c0.576 0.264 1.25 0.418 1.96 0.418s1.384-0.154 1.99-0.431l-0.030 0.012c0.591-0.282 1.285-0.447 2.017-0.447s1.426 0.165 2.046 0.459l-0.029-0.012c0.576 0.264 1.25 0.419 1.96 0.419s1.384-0.154 1.99-0.431l-0.030 0.012c0.593-0.281 1.288-0.445 2.021-0.447h0.001c0.734 0.004 1.428 0.168 2.051 0.459l-0.030-0.013c0.575 0.264 1.248 0.418 1.957 0.418s1.382-0.154 1.987-0.431l-0.030 0.012c0.592-0.282 1.286-0.447 2.019-0.447s1.427 0.165 2.048 0.459l-0.029-0.012c0.576 0.262 1.248 0.415 1.956 0.419h0.001zM27.217 19.061c2.066-0.015 3.736-1.693 3.736-3.761 0-2.077-1.684-3.762-3.762-3.762-2.076 0-3.76 1.682-3.762 3.758v0c-0.001 0.024-0.001 0.052-0.001 0.081 0 2.036 1.65 3.686 3.686 3.686 0.036 0 0.072-0.001 0.108-0.002l-0.005 0zM5.166 21.176c0.321 0.079 0.599 0.178 0.863 0.301l-0.029-0.012c0.575 0.268 1.249 0.425 1.96 0.425s1.384-0.157 1.989-0.437l-0.029 0.012c0.591-0.283 1.285-0.448 2.017-0.448s1.426 0.165 2.046 0.461l-0.029-0.012c0.575 0.268 1.249 0.425 1.96 0.425s1.384-0.157 1.989-0.437l-0.029 0.012c0.593-0.278 1.288-0.443 2.020-0.448h0.002c0.734 0.008 1.428 0.172 2.052 0.461l-0.031-0.013c0.575 0.266 1.248 0.423 1.957 0.425h0.001c0.521-0.002 1.022-0.086 1.491-0.238l-0.035 0.010-6.315-11.31 7.346-1.331c1.048-0.158 1.844-1.044 1.86-2.119l0-0.002c-0.006-1.182-0.966-2.138-2.15-2.138-0.004 0-0.009 0-0.013 0h0.001l-0.245 0.007-11.347 2.050c-0.833 0.265-1.425 1.031-1.425 1.936 0 0.298 0.064 0.581 0.18 0.836l-0.005-0.013 0.097 0.229 2.961 5.306-11.107 6.063z"></path>
</symbol>
<symbol id="icon-Icon-material-email" viewBox="0 0 32 32">
<path fill="#fff" style="fill: var(--color1, #fff)" d="M28.8 3.556h-25.6c-1.76 0.009-3.184 1.438-3.184 3.2 0 0 0 0 0 0v0l-0.016 19.2c0.005 1.765 1.435 3.195 3.2 3.2h25.6c1.765-0.005 3.195-1.435 3.2-3.2v-19.2c-0.005-1.765-1.435-3.195-3.2-3.2h-0zM28.8 9.956l-12.8 8-12.8-8v-3.2l12.8 8 12.8-8z"></path>
</symbol>
<symbol id="icon-Icon-material-local-cafe" viewBox="0 0 32 32">
<path fill="#614818" style="fill: var(--color2, #614818)" d="M28.692 1.697h-25.504v15.94c0 0.001 0 0.001 0 0.002 0 3.52 2.854 6.374 6.374 6.374 0.001 0 0.001 0 0.002 0h9.564c0 0 0 0 0 0 3.52 0 6.374-2.854 6.374-6.374 0-0.001 0-0.001 0-0.002v0-4.782h3.188c0.003 0 0.007 0 0.011 0 1.755 0 3.177-1.422 3.177-3.177 0-0.004 0-0.008-0-0.011v0.001-4.783c0-0.003 0-0.007 0-0.011 0-1.755-1.422-3.177-3.177-3.177-0.003 0-0.006 0-0.010 0h0zM28.692 9.667h-3.189v-4.782h3.188zM0 30.389h28.692v-3.189h-28.692z"></path>
</symbol>
<symbol id="icon-Icon-material-my-location" viewBox="0 0 32 32">
<path fill="#fff" style="fill: var(--color1, #fff)" d="M16 10.181c-3.214 0-5.819 2.605-5.819 5.819s2.605 5.819 5.819 5.819c3.214 0 5.819-2.605 5.819-5.819v0c0-0.001 0-0.001 0-0.002 0-3.213-2.604-5.817-5.817-5.817-0.001 0-0.001 0-0.002 0h0zM29.004 14.546c-0.696-6.081-5.474-10.859-11.495-11.55l-0.060-0.006v-2.99h-2.903v2.996c-6.081 0.696-10.859 5.474-11.55 11.495l-0.006 0.060h-2.99v2.908h2.996c0.696 6.081 5.474 10.859 11.495 11.55l0.060 0.006v2.985h2.908v-2.996c6.081-0.696 10.859-5.474 11.55-11.495l0.006-0.060h2.985v-2.903zM16 26.181c-5.623 0-10.181-4.558-10.181-10.181s4.558-10.181 10.181-10.181c5.623 0 10.181 4.558 10.181 10.181v0c0 0.002 0 0.005 0 0.007 0 5.619-4.555 10.174-10.174 10.174-0.003 0-0.005 0-0.008 0h0z"></path>
</symbol>
<symbol id="icon-Icon-zocial-email" viewBox="0 0 32 32">
<path fill="#fff" style="fill: var(--color1, #fff)" d="M0 24.015v-17.231q0-0.030 0.089-0.569l10.144 8.672-10.112 9.726c-0.060-0.175-0.103-0.378-0.12-0.589l-0.001-0.009zM1.346 5.002c0.14-0.056 0.302-0.089 0.471-0.089 0.013 0 0.027 0 0.040 0.001l-0.002-0h27.323c0.193 0 0.378 0.033 0.551 0.092l-0.012-0.004-10.178 8.719-1.346 1.078-2.663 2.183-2.661-2.183-1.346-1.078zM1.376 25.767l10.203-9.772 3.938 3.2 3.938-3.2 10.203 9.785c-0.148 0.056-0.319 0.089-0.497 0.089-0.004 0-0.009-0-0.013-0h-27.293c-0.172-0.001-0.336-0.033-0.487-0.092l0.009 0.003zM20.822 14.875l10.114-8.677c0.056 0.166 0.089 0.357 0.089 0.556 0 0.004-0 0.009-0 0.013v-0.001 17.231c-0.003 0.214-0.035 0.42-0.093 0.614l0.004-0.016z"></path>
</symbol>
<symbol id="icon-Video-Button" viewBox="0 0 32 32">
<path fill="#fff" style="fill: var(--color1, #fff)" opacity="0.25" d="M16 0.881c8.107 0 14.679 6.572 14.679 14.679s-6.572 14.679-14.679 14.679c-8.107 0-14.679-6.572-14.679-14.679v0c0-8.107 6.572-14.679 14.679-14.679v0z"></path>
<path fill="#fff" style="fill: var(--color1, #fff)" d="M26.569 15.56c0 5.837-4.732 10.569-10.569 10.569s-10.569-4.732-10.569-10.569c0-5.837 4.732-10.569 10.569-10.569s10.569 4.732 10.569 10.569z"></path>
<path fill="#000" style="fill: var(--color3, #000)" d="M19.376 15.633l-5.431 3.596v-7.193z"></path>
</symbol>
<symbol id="icon-minus" viewBox="0 0 24 24">
<path d="M5 13h14c0.552 0 1-0.448 1-1s-0.448-1-1-1h-14c-0.552 0-1 0.448-1 1s0.448 1 1 1z"></path>
</symbol>
<symbol id="icon-plus" viewBox="0 0 24 24">
<path d="M5 13h6v6c0 0.552 0.448 1 1 1s1-0.448 1-1v-6h6c0.552 0 1-0.448 1-1s-0.448-1-1-1h-6v-6c0-0.552-0.448-1-1-1s-1 0.448-1 1v6h-6c-0.552 0-1 0.448-1 1s0.448 1 1 1z"></path>
</symbol>
<symbol id="icon-chevrons-right" viewBox="0 0 24 24">
<path d="M13.707 17.707l5-5c0.391-0.391 0.391-1.024 0-1.414l-5-5c-0.391-0.391-1.024-0.391-1.414 0s-0.391 1.024 0 1.414l4.293 4.293-4.293 4.293c-0.391 0.391-0.391 1.024 0 1.414s1.024 0.391 1.414 0zM6.707 17.707l5-5c0.391-0.391 0.391-1.024 0-1.414l-5-5c-0.391-0.391-1.024-0.391-1.414 0s-0.391 1.024 0 1.414l4.293 4.293-4.293 4.293c-0.391 0.391-0.391 1.024 0 1.414s1.024 0.391 1.414 0z"></path>
</symbol>
</defs>
</svg>
